<mxfile host="app.diagrams.net" agent="Mozilla/5.0 (Windows NT 10.0; Win64; x64) AppleWebKit/537.36 (KHTML, like Gecko) Chrome/137.0.0.0 Safari/537.36" version="27.1.5">
  <diagram name="Página-1" id="aiAIzCGLnop6yY84c54Q">
    <mxGraphModel dx="1042" dy="527" grid="1" gridSize="10" guides="1" tooltips="1" connect="1" arrows="1" fold="1" page="1" pageScale="1" pageWidth="827" pageHeight="1169" math="0" shadow="0">
      <root>
        <mxCell id="0" />
        <mxCell id="1" parent="0" />
        <mxCell id="vObOPTxiMRpe7GjKn_Re-1" value="" style="group" parent="1" vertex="1" connectable="0">
          <mxGeometry x="280" y="100" width="1070" height="770" as="geometry" />
        </mxCell>
        <mxCell id="vObOPTxiMRpe7GjKn_Re-2" value="&lt;font style=&quot;font-size: 48px;&quot;&gt;&lt;b&gt;Modelo Entidad Relación&lt;/b&gt;&lt;/font&gt;" style="text;html=1;align=center;verticalAlign=middle;resizable=0;points=[];autosize=1;strokeColor=none;fillColor=none;fontSize=20;" parent="vObOPTxiMRpe7GjKn_Re-1" vertex="1">
          <mxGeometry x="220" width="590" height="70" as="geometry" />
        </mxCell>
        <mxCell id="vObOPTxiMRpe7GjKn_Re-3" value="" style="group" parent="vObOPTxiMRpe7GjKn_Re-1" vertex="1" connectable="0">
          <mxGeometry y="131" width="1070" height="640" as="geometry" />
        </mxCell>
        <mxCell id="vObOPTxiMRpe7GjKn_Re-4" value="&lt;b&gt;&lt;font style=&quot;font-size: 24px;&quot;&gt;carreras&lt;/font&gt;&lt;/b&gt;" style="rounded=0;whiteSpace=wrap;html=1;" parent="vObOPTxiMRpe7GjKn_Re-3" vertex="1">
          <mxGeometry x="290" y="140" width="120" height="60" as="geometry" />
        </mxCell>
        <mxCell id="vObOPTxiMRpe7GjKn_Re-5" value="&lt;b&gt;&lt;font style=&quot;font-size: 24px;&quot;&gt;tipos_carreras&lt;/font&gt;&lt;/b&gt;" style="rounded=0;whiteSpace=wrap;html=1;" parent="vObOPTxiMRpe7GjKn_Re-3" vertex="1">
          <mxGeometry x="720" y="140" width="190" height="60" as="geometry" />
        </mxCell>
        <mxCell id="vObOPTxiMRpe7GjKn_Re-6" value="&lt;b&gt;&lt;font style=&quot;font-size: 24px;&quot;&gt;paises&lt;br&gt;&lt;/font&gt;&lt;/b&gt;" style="rounded=0;whiteSpace=wrap;html=1;" parent="vObOPTxiMRpe7GjKn_Re-3" vertex="1">
          <mxGeometry x="290" y="450" width="120" height="60" as="geometry" />
        </mxCell>
        <mxCell id="vObOPTxiMRpe7GjKn_Re-7" value="&lt;b style=&quot;&quot;&gt;&lt;u style=&quot;&quot;&gt;carrera_id&lt;/u&gt;&lt;/b&gt;" style="ellipse;whiteSpace=wrap;html=1;rounded=0;" parent="vObOPTxiMRpe7GjKn_Re-3" vertex="1">
          <mxGeometry x="340" width="120" height="60" as="geometry" />
        </mxCell>
        <mxCell id="vObOPTxiMRpe7GjKn_Re-8" value="" style="edgeStyle=orthogonalEdgeStyle;rounded=0;orthogonalLoop=1;jettySize=auto;html=1;fontSize=24;" parent="vObOPTxiMRpe7GjKn_Re-3" source="vObOPTxiMRpe7GjKn_Re-4" target="vObOPTxiMRpe7GjKn_Re-7" edge="1">
          <mxGeometry relative="1" as="geometry" />
        </mxCell>
        <mxCell id="vObOPTxiMRpe7GjKn_Re-9" value="nombre" style="ellipse;whiteSpace=wrap;html=1;rounded=0;" parent="vObOPTxiMRpe7GjKn_Re-3" vertex="1">
          <mxGeometry x="210" width="120" height="60" as="geometry" />
        </mxCell>
        <mxCell id="vObOPTxiMRpe7GjKn_Re-10" value="" style="edgeStyle=orthogonalEdgeStyle;rounded=0;orthogonalLoop=1;jettySize=auto;html=1;fontSize=24;" parent="vObOPTxiMRpe7GjKn_Re-3" source="vObOPTxiMRpe7GjKn_Re-4" target="vObOPTxiMRpe7GjKn_Re-9" edge="1">
          <mxGeometry relative="1" as="geometry" />
        </mxCell>
        <mxCell id="vObOPTxiMRpe7GjKn_Re-11" value="&lt;i&gt;&lt;u&gt;tipo_carrera&lt;/u&gt;&lt;/i&gt;" style="ellipse;whiteSpace=wrap;html=1;rounded=0;" parent="vObOPTxiMRpe7GjKn_Re-3" vertex="1">
          <mxGeometry x="100" y="30" width="120" height="60" as="geometry" />
        </mxCell>
        <mxCell id="vObOPTxiMRpe7GjKn_Re-12" value="" style="edgeStyle=orthogonalEdgeStyle;rounded=0;orthogonalLoop=1;jettySize=auto;html=1;fontSize=24;" parent="vObOPTxiMRpe7GjKn_Re-3" source="vObOPTxiMRpe7GjKn_Re-4" target="vObOPTxiMRpe7GjKn_Re-11" edge="1">
          <mxGeometry relative="1" as="geometry">
            <Array as="points">
              <mxPoint x="150" y="170" />
            </Array>
          </mxGeometry>
        </mxCell>
        <mxCell id="vObOPTxiMRpe7GjKn_Re-13" value="&lt;b&gt;&lt;font style=&quot;font-size: 20px;&quot;&gt;pertenece&lt;/font&gt;&lt;/b&gt;" style="rhombus;whiteSpace=wrap;html=1;rounded=0;" parent="vObOPTxiMRpe7GjKn_Re-3" vertex="1">
          <mxGeometry x="510" y="105" width="140" height="130" as="geometry" />
        </mxCell>
        <mxCell id="vObOPTxiMRpe7GjKn_Re-14" value="" style="edgeStyle=orthogonalEdgeStyle;rounded=0;orthogonalLoop=1;jettySize=auto;html=1;fontSize=24;" parent="vObOPTxiMRpe7GjKn_Re-3" source="vObOPTxiMRpe7GjKn_Re-4" target="vObOPTxiMRpe7GjKn_Re-13" edge="1">
          <mxGeometry relative="1" as="geometry" />
        </mxCell>
        <mxCell id="vObOPTxiMRpe7GjKn_Re-15" value="" style="edgeStyle=orthogonalEdgeStyle;rounded=0;orthogonalLoop=1;jettySize=auto;html=1;fontSize=24;entryX=1;entryY=0.5;entryDx=0;entryDy=0;" parent="vObOPTxiMRpe7GjKn_Re-3" source="vObOPTxiMRpe7GjKn_Re-5" target="vObOPTxiMRpe7GjKn_Re-13" edge="1">
          <mxGeometry relative="1" as="geometry">
            <mxPoint x="620" y="130" as="targetPoint" />
          </mxGeometry>
        </mxCell>
        <mxCell id="vObOPTxiMRpe7GjKn_Re-16" value="1" style="text;html=1;align=center;verticalAlign=middle;resizable=0;points=[];autosize=1;strokeColor=none;fillColor=none;fontSize=20;" parent="vObOPTxiMRpe7GjKn_Re-3" vertex="1">
          <mxGeometry x="460" y="130" width="30" height="40" as="geometry" />
        </mxCell>
        <mxCell id="vObOPTxiMRpe7GjKn_Re-17" value="1" style="text;html=1;align=center;verticalAlign=middle;resizable=0;points=[];autosize=1;strokeColor=none;fillColor=none;fontSize=20;" parent="vObOPTxiMRpe7GjKn_Re-3" vertex="1">
          <mxGeometry x="660" y="130" width="30" height="40" as="geometry" />
        </mxCell>
        <mxCell id="vObOPTxiMRpe7GjKn_Re-18" value="fecha" style="ellipse;whiteSpace=wrap;html=1;rounded=0;" parent="vObOPTxiMRpe7GjKn_Re-3" vertex="1">
          <mxGeometry x="10" y="90" width="120" height="60" as="geometry" />
        </mxCell>
        <mxCell id="vObOPTxiMRpe7GjKn_Re-19" value="" style="edgeStyle=orthogonalEdgeStyle;rounded=0;orthogonalLoop=1;jettySize=auto;html=1;fontSize=20;" parent="vObOPTxiMRpe7GjKn_Re-3" source="vObOPTxiMRpe7GjKn_Re-4" target="vObOPTxiMRpe7GjKn_Re-18" edge="1">
          <mxGeometry relative="1" as="geometry">
            <Array as="points">
              <mxPoint x="150" y="170" />
              <mxPoint x="150" y="130" />
            </Array>
          </mxGeometry>
        </mxCell>
        <mxCell id="vObOPTxiMRpe7GjKn_Re-20" value="tiempo" style="ellipse;whiteSpace=wrap;html=1;rounded=0;" parent="vObOPTxiMRpe7GjKn_Re-3" vertex="1">
          <mxGeometry y="160" width="120" height="60" as="geometry" />
        </mxCell>
        <mxCell id="vObOPTxiMRpe7GjKn_Re-21" value="" style="edgeStyle=orthogonalEdgeStyle;rounded=0;orthogonalLoop=1;jettySize=auto;html=1;fontSize=20;entryX=1;entryY=0.5;entryDx=0;entryDy=0;" parent="vObOPTxiMRpe7GjKn_Re-3" source="vObOPTxiMRpe7GjKn_Re-4" target="vObOPTxiMRpe7GjKn_Re-20" edge="1">
          <mxGeometry relative="1" as="geometry">
            <Array as="points">
              <mxPoint x="190" y="190" />
              <mxPoint x="190" y="190" />
            </Array>
          </mxGeometry>
        </mxCell>
        <mxCell id="vObOPTxiMRpe7GjKn_Re-22" value="mejor_tiempo" style="ellipse;whiteSpace=wrap;html=1;rounded=0;" parent="vObOPTxiMRpe7GjKn_Re-3" vertex="1">
          <mxGeometry y="230" width="120" height="60" as="geometry" />
        </mxCell>
        <mxCell id="vObOPTxiMRpe7GjKn_Re-23" value="" style="edgeStyle=orthogonalEdgeStyle;rounded=0;orthogonalLoop=1;jettySize=auto;html=1;fontSize=20;entryX=1;entryY=0.5;entryDx=0;entryDy=0;" parent="vObOPTxiMRpe7GjKn_Re-3" source="vObOPTxiMRpe7GjKn_Re-4" target="vObOPTxiMRpe7GjKn_Re-22" edge="1">
          <mxGeometry relative="1" as="geometry">
            <Array as="points">
              <mxPoint x="150" y="170" />
              <mxPoint x="150" y="260" />
            </Array>
          </mxGeometry>
        </mxCell>
        <mxCell id="vObOPTxiMRpe7GjKn_Re-24" value="altitud" style="ellipse;whiteSpace=wrap;html=1;rounded=0;" parent="vObOPTxiMRpe7GjKn_Re-3" vertex="1">
          <mxGeometry x="10" y="300" width="120" height="60" as="geometry" />
        </mxCell>
        <mxCell id="vObOPTxiMRpe7GjKn_Re-25" value="" style="edgeStyle=orthogonalEdgeStyle;rounded=0;orthogonalLoop=1;jettySize=auto;html=1;fontSize=20;" parent="vObOPTxiMRpe7GjKn_Re-3" source="vObOPTxiMRpe7GjKn_Re-4" target="vObOPTxiMRpe7GjKn_Re-24" edge="1">
          <mxGeometry relative="1" as="geometry">
            <Array as="points">
              <mxPoint x="150" y="170" />
            </Array>
          </mxGeometry>
        </mxCell>
        <mxCell id="vObOPTxiMRpe7GjKn_Re-26" value="lugar" style="ellipse;whiteSpace=wrap;html=1;rounded=0;" parent="vObOPTxiMRpe7GjKn_Re-3" vertex="1">
          <mxGeometry x="10" y="370" width="120" height="60" as="geometry" />
        </mxCell>
        <mxCell id="vObOPTxiMRpe7GjKn_Re-27" value="" style="edgeStyle=orthogonalEdgeStyle;rounded=0;orthogonalLoop=1;jettySize=auto;html=1;fontSize=20;" parent="vObOPTxiMRpe7GjKn_Re-3" source="vObOPTxiMRpe7GjKn_Re-4" target="vObOPTxiMRpe7GjKn_Re-26" edge="1">
          <mxGeometry relative="1" as="geometry">
            <Array as="points">
              <mxPoint x="150" y="170" />
              <mxPoint x="150" y="400" />
            </Array>
          </mxGeometry>
        </mxCell>
        <mxCell id="vObOPTxiMRpe7GjKn_Re-28" value="&lt;i&gt;&lt;u&gt;pais&lt;/u&gt;&lt;/i&gt;" style="ellipse;whiteSpace=wrap;html=1;rounded=0;" parent="vObOPTxiMRpe7GjKn_Re-3" vertex="1">
          <mxGeometry x="10" y="440" width="120" height="60" as="geometry" />
        </mxCell>
        <mxCell id="vObOPTxiMRpe7GjKn_Re-29" value="" style="edgeStyle=orthogonalEdgeStyle;rounded=0;orthogonalLoop=1;jettySize=auto;html=1;fontSize=20;" parent="vObOPTxiMRpe7GjKn_Re-3" source="vObOPTxiMRpe7GjKn_Re-4" target="vObOPTxiMRpe7GjKn_Re-28" edge="1">
          <mxGeometry relative="1" as="geometry">
            <Array as="points">
              <mxPoint x="150" y="170" />
              <mxPoint x="150" y="470" />
            </Array>
          </mxGeometry>
        </mxCell>
        <mxCell id="vObOPTxiMRpe7GjKn_Re-30" value="&lt;b&gt;&lt;font style=&quot;font-size: 20px;&quot;&gt;se corre&lt;/font&gt;&lt;/b&gt;" style="rhombus;whiteSpace=wrap;html=1;rounded=0;" parent="vObOPTxiMRpe7GjKn_Re-3" vertex="1">
          <mxGeometry x="295" y="260" width="110" height="110" as="geometry" />
        </mxCell>
        <mxCell id="vObOPTxiMRpe7GjKn_Re-31" value="" style="edgeStyle=orthogonalEdgeStyle;rounded=0;orthogonalLoop=1;jettySize=auto;html=1;fontSize=20;" parent="vObOPTxiMRpe7GjKn_Re-3" source="vObOPTxiMRpe7GjKn_Re-4" target="vObOPTxiMRpe7GjKn_Re-30" edge="1">
          <mxGeometry relative="1" as="geometry" />
        </mxCell>
        <mxCell id="vObOPTxiMRpe7GjKn_Re-32" value="" style="edgeStyle=orthogonalEdgeStyle;rounded=0;orthogonalLoop=1;jettySize=auto;html=1;fontSize=20;" parent="vObOPTxiMRpe7GjKn_Re-3" source="vObOPTxiMRpe7GjKn_Re-6" target="vObOPTxiMRpe7GjKn_Re-30" edge="1">
          <mxGeometry relative="1" as="geometry" />
        </mxCell>
        <mxCell id="vObOPTxiMRpe7GjKn_Re-33" value="&lt;u&gt;&lt;b&gt;pais_id&lt;/b&gt;&lt;/u&gt;" style="ellipse;whiteSpace=wrap;html=1;rounded=0;" parent="vObOPTxiMRpe7GjKn_Re-3" vertex="1">
          <mxGeometry x="220" y="580" width="120" height="60" as="geometry" />
        </mxCell>
        <mxCell id="vObOPTxiMRpe7GjKn_Re-34" value="" style="edgeStyle=orthogonalEdgeStyle;rounded=0;orthogonalLoop=1;jettySize=auto;html=1;fontSize=20;" parent="vObOPTxiMRpe7GjKn_Re-3" source="vObOPTxiMRpe7GjKn_Re-6" target="vObOPTxiMRpe7GjKn_Re-33" edge="1">
          <mxGeometry relative="1" as="geometry" />
        </mxCell>
        <mxCell id="vObOPTxiMRpe7GjKn_Re-35" value="nombre" style="ellipse;whiteSpace=wrap;html=1;rounded=0;" parent="vObOPTxiMRpe7GjKn_Re-3" vertex="1">
          <mxGeometry x="360" y="580" width="120" height="60" as="geometry" />
        </mxCell>
        <mxCell id="vObOPTxiMRpe7GjKn_Re-36" value="" style="edgeStyle=orthogonalEdgeStyle;rounded=0;orthogonalLoop=1;jettySize=auto;html=1;fontSize=20;" parent="vObOPTxiMRpe7GjKn_Re-3" source="vObOPTxiMRpe7GjKn_Re-6" target="vObOPTxiMRpe7GjKn_Re-35" edge="1">
          <mxGeometry relative="1" as="geometry" />
        </mxCell>
        <mxCell id="vObOPTxiMRpe7GjKn_Re-37" value="&lt;b&gt;&lt;u&gt;tipo_carrera_id&lt;/u&gt;&lt;/b&gt;" style="ellipse;whiteSpace=wrap;html=1;rounded=0;" parent="vObOPTxiMRpe7GjKn_Re-3" vertex="1">
          <mxGeometry x="755" y="40" width="120" height="60" as="geometry" />
        </mxCell>
        <mxCell id="vObOPTxiMRpe7GjKn_Re-38" value="" style="edgeStyle=orthogonalEdgeStyle;rounded=0;orthogonalLoop=1;jettySize=auto;html=1;fontSize=20;" parent="vObOPTxiMRpe7GjKn_Re-3" source="vObOPTxiMRpe7GjKn_Re-5" target="vObOPTxiMRpe7GjKn_Re-37" edge="1">
          <mxGeometry relative="1" as="geometry" />
        </mxCell>
        <mxCell id="vObOPTxiMRpe7GjKn_Re-39" value="descripcion" style="ellipse;whiteSpace=wrap;html=1;rounded=0;" parent="vObOPTxiMRpe7GjKn_Re-3" vertex="1">
          <mxGeometry x="950" y="140" width="120" height="60" as="geometry" />
        </mxCell>
        <mxCell id="vObOPTxiMRpe7GjKn_Re-40" value="" style="edgeStyle=orthogonalEdgeStyle;rounded=0;orthogonalLoop=1;jettySize=auto;html=1;fontSize=20;" parent="vObOPTxiMRpe7GjKn_Re-3" source="vObOPTxiMRpe7GjKn_Re-5" target="vObOPTxiMRpe7GjKn_Re-39" edge="1">
          <mxGeometry relative="1" as="geometry" />
        </mxCell>
        <mxCell id="vObOPTxiMRpe7GjKn_Re-41" value="distancia" style="ellipse;whiteSpace=wrap;html=1;rounded=0;" parent="vObOPTxiMRpe7GjKn_Re-3" vertex="1">
          <mxGeometry x="755" y="240" width="120" height="60" as="geometry" />
        </mxCell>
        <mxCell id="vObOPTxiMRpe7GjKn_Re-42" value="" style="edgeStyle=orthogonalEdgeStyle;rounded=0;orthogonalLoop=1;jettySize=auto;html=1;fontSize=20;" parent="vObOPTxiMRpe7GjKn_Re-3" source="vObOPTxiMRpe7GjKn_Re-5" target="vObOPTxiMRpe7GjKn_Re-41" edge="1">
          <mxGeometry relative="1" as="geometry" />
        </mxCell>
        <mxCell id="vObOPTxiMRpe7GjKn_Re-43" value="&lt;meta charset=&quot;utf-8&quot;&gt;&lt;span style=&quot;color: rgb(0, 0, 0); font-family: Helvetica; font-size: 20px; font-style: normal; font-variant-ligatures: normal; font-variant-caps: normal; font-weight: 400; letter-spacing: normal; orphans: 2; text-align: center; text-indent: 0px; text-transform: none; widows: 2; word-spacing: 0px; -webkit-text-stroke-width: 0px; background-color: rgb(248, 249, 250); text-decoration-thickness: initial; text-decoration-style: initial; text-decoration-color: initial; float: none; display: inline !important;&quot;&gt;1&lt;/span&gt;" style="text;whiteSpace=wrap;html=1;fontSize=48;" parent="vObOPTxiMRpe7GjKn_Re-3" vertex="1">
          <mxGeometry x="360" y="360" width="40" height="80" as="geometry" />
        </mxCell>
        <mxCell id="vObOPTxiMRpe7GjKn_Re-44" value="1" style="text;html=1;align=center;verticalAlign=middle;resizable=0;points=[];autosize=1;strokeColor=none;fillColor=none;fontSize=20;" parent="vObOPTxiMRpe7GjKn_Re-3" vertex="1">
          <mxGeometry x="350" y="220" width="30" height="40" as="geometry" />
        </mxCell>
      </root>
    </mxGraphModel>
  </diagram>
</mxfile>
